<?xml version="1.0" encoding="UTF-8"?>
<svg width="26px" height="29px" viewBox="0 0 26 29" version="1.1" xmlns="http://www.w3.org/2000/svg" xmlns:xlink="http://www.w3.org/1999/xlink">
    <!-- Generator: Sketch 52.6 (67491) - http://www.bohemiancoding.com/sketch -->
    <title>wynk logo - wht</title>
    <desc>Created with Sketch.</desc>
    <g id="Page-1" stroke="none" stroke-width="1" fill="none" fill-rule="evenodd">
        <g id="Our-Apps-(Desktop)-Main" transform="translate(-68.000000, -61.000000)" fill="#FFFFFF">
            <g id="wynk-Logo-red" transform="translate(58.000000, 52.000000)">
                <g id="wynk-logo---wht" transform="translate(10.000000, 9.000000)">
                    <g id="wynk-logo">
                        <path d="M21.0151952,8.03064557 L20.8671393,9.44309557 C22.8993902,11.3847167 24.1849572,14.1752055 24.1849572,17.2496528 C24.1849572,23.0408128 19.6237897,27.8247607 14.1024916,27.8247607 C8.58110934,27.8247607 4.02002607,23.0408128 4.02002607,17.2496528 C4.02002607,11.4584928 8.58110934,6.67454496 14.1024916,6.67454496 C15.16509,6.67454496 16.1918751,6.85235072 17.1576514,7.17983177 L17.2827869,6.0181675 C16.2607207,5.70130172 15.1785726,5.53048435 14.0585889,5.53048435 C7.73676078,5.53048435 2.80633821,10.86908 2.80633821,17.2496528 C2.80633821,23.6302256 8.01913723,29.009867 14.1024916,29.009867 C20.185846,29.009867 25.3148843,23.7553088 25.3148843,17.2496528 C25.3148843,13.4948553 23.6313275,10.1705953 21.0151952,8.03064557" id="Fill-4"></path>
                        <path d="M20.5913187,12.0743111 L20.3514125,14.3628746 C20.7563965,15.2748147 20.9857694,16.2810537 20.9857694,17.3308154 C20.9857694,21.2483804 17.8165972,24.5724634 14.0815767,24.5724634 C10.2333023,24.5724634 7.17729981,21.2483804 7.17729981,17.3308154 C7.17729981,13.4132504 10.346472,10.0892558 14.0815767,10.0892558 C15.0320166,10.0892558 15.9453793,10.305365 16.7797001,10.6908762 L16.9389635,9.21163847 C16.0465831,8.85125009 15.083082,8.65106381 14.0795543,8.65106381 C9.54695308,8.65106381 5.87209873,12.4954719 5.87209873,17.2496086 C5.87209873,22.0038337 9.56987352,25.8821222 14.1024748,25.8821222 C18.6351603,25.8821222 22.3328508,22.0038337 22.3328508,17.2496086 C22.3328508,15.35841 21.6811351,13.5446143 20.5913187,12.0743111" id="Fill-6"></path>
                        <path d="M1.01708609,17.2496351 C1.01708609,9.74313614 6.79000336,3.53072691 13.9468265,3.53072691 L14.0661476,3.53072691 L14.0661476,2.58057188 L13.9468265,2.58057188 C6.19365059,2.58057188 0.0774323244,9.14178116 -8.42663232e-06,17.2496351 L1.01708609,17.2496351 Z" id="Fill-1"></path>
                        <path d="M19.073084,0 L17.4807875,14.928695 C17.4807875,14.928695 15.6422649,13.2933244 13.0289134,14.0846927 C10.5806396,14.8261692 10.3710693,16.7892863 10.3692997,17.2496351 C10.3658448,18.1253948 10.9927862,20.4788884 13.9748029,20.9793099 C17.5532566,21.4797313 18.489961,19.1772795 18.6351519,18.3756498 C18.8251724,17.5950737 19.7087048,8.99245971 19.7087048,8.99245971 L20.1858208,4.27547649 C20.1858208,4.27547649 22.7131363,4.16950072 23.9060104,5.42059863 C25.0988002,6.67169653 24.6288469,8.24452555 24.4367197,8.83420374 C24.2624569,9.36930175 23.8535125,9.8816654 24.3668629,9.71314801 C24.724742,9.58806475 25.6654912,8.54307999 25.8335183,7.53029487 C26.1054457,5.33470341 24.4799483,4.15039324 24.2413904,3.90013827 C24.0028324,3.64997177 21.9699916,2.37950099 21.6292186,2.02176643 C21.3251857,1.70268914 20.7822578,1.05984614 20.7822578,0.309258169 L19.073084,0 Z" id="Fill-8"></path>
                    </g>
                </g>
            </g>
        </g>
    </g>
</svg>