<?xml version="1.0" encoding="UTF-8"?>
<svg width="27px" height="29px" viewBox="0 0 27 29" version="1.1" xmlns="http://www.w3.org/2000/svg" xmlns:xlink="http://www.w3.org/1999/xlink">
    <!-- Generator: Sketch 52.6 (67491) - http://www.bohemiancoding.com/sketch -->
    <title>Group 12</title>
    <desc>Created with Sketch.</desc>
    <defs>
        <polygon id="path-1" points="0.191767707 0.848718071 16.1040201 0.848718071 16.1040201 20.8343573 0.191767707 20.8343573"></polygon>
    </defs>
    <g id="Page-1" stroke="none" stroke-width="1" fill="none" fill-rule="evenodd">
        <g id="Our-Apps-(Desktop)-Main" transform="translate(-1005.000000, -693.000000)">
            <g id="Group-9" transform="translate(892.000000, 40.000000)">
                <g id="Group-5" transform="translate(35.000000, 625.000000)">
                    <g id="Group-4" transform="translate(78.000000, 28.000000)">
                        <g id="Group-12">
                            <path d="M10.1021609,18.2520015 C10.0034481,15.5538894 12.6599199,12.8929848 15.0893523,13.0790226 L15.2100013,13.0857876 L15.2023236,12.168001 L15.0739969,12.168001 C11.860346,12.1984436 9.12600076,14.8187581 9.12600076,18.2520015 L10.1021609,18.2520015 Z" id="Fill-1" fill="#80161A"></path>
                            <path d="M14.4277673,25.0274 C10.2703732,25.0274 6.96784779,21.5969951 6.96784779,17.5537216 C6.96784779,13.5104481 10.3924973,10.0790062 14.4277673,10.0790062 C18.4630372,10.0790062 21.8876867,13.5104481 21.8876867,17.5537216 C21.8876867,21.5969951 18.4630372,25.0274 14.4277673,25.0274 M14.4267323,9.12600076 C9.81913499,9.12600076 6.08400051,12.8592104 6.08400051,17.4749094 C6.08400051,22.0906084 9.84190389,25.8570022 14.4495012,25.8570022 C19.0560636,25.8570022 22.8150019,22.0906084 22.8150019,17.4749094 C22.8150019,13.086314 19.0332947,9.12600076 14.4267323,9.12600076" id="Fill-3" fill="#80161A"></path>
                            <path d="M14.4923342,27.7480819 C8.89515003,27.7480819 4.27228672,23.0997743 4.27228672,17.4717833 C4.27228672,11.8437922 8.89515003,7.19548464 14.4923342,7.19548464 C20.0884862,7.19548464 24.7123816,11.8437922 24.7123816,17.4717833 C24.7123816,23.0997743 20.0884862,27.7480819 14.4923342,27.7480819 M14.447953,6.08400051 C8.03952295,6.08400051 3.04200025,11.2719642 3.04200025,17.4717833 C3.04200025,23.6716023 8.32542006,28.8990024 14.4923342,28.8990024 C20.6582162,28.8990024 25.8570022,23.7930249 25.8570022,17.4717833 C25.8570022,11.1495038 20.734593,6.08400051 14.447953,6.08400051" id="Fill-5" fill="#80161A"></path>
                            <path d="M1.09995593,16.7310014 C1.09995593,9.72653834 7.34184801,3.92901962 15.0811776,3.92901962 L15.2100013,3.92901962 L15.2100013,3.04200025 L15.0811776,3.04200025 C6.69662862,3.04200025 0.0836803313,9.16542385 0,16.7310014 L1.09995593,16.7310014 Z" id="Fill-7" fill="#80161A"></path>
                            <g id="Group-11" transform="translate(10.647001, 0.000000)">
                                <mask id="mask-2" fill="white">
                                    <use xlink:href="#path-1"></use>
                                </mask>
                                <g id="Clip-10"></g>
                                <path d="M9.1303166,0.848616671 L7.49486121,15.0233239 C7.49486121,15.0233239 5.60739512,13.4698757 2.92311508,14.2212498 C0.409282122,14.9249658 0.193870479,16.789712 0.191779104,17.225732 C0.188642041,18.0582261 0.831739907,20.2920683 3.89455885,20.7676343 C7.56910503,21.2421864 8.53113761,19.0560022 8.68067094,18.2955021 C8.87516883,17.5542681 9.78282565,9.38649738 9.78282565,9.38649738 L10.2732531,4.90765901 C10.2732531,4.90765901 12.8686497,4.807273 14.0941956,5.9956811 C15.3186957,7.1830752 14.8355881,8.67669732 14.6389988,9.23642537 C14.4601862,9.74443941 14.0398198,10.2301455 14.5668464,10.0709474 C14.9338827,9.95230943 15.9011437,8.95960335 16.0726365,7.99833127 C16.3518351,5.91354709 14.6829177,4.789021 14.4382268,4.55174498 C14.1924902,4.31345496 12.1052978,3.10780886 11.7549924,2.76811883 C11.4433775,2.46493281 10.8860261,1.85450475 10.8860261,1.1426767 L9.1303166,0.848616671 Z" id="Fill-9" fill="#FFFFFF" mask="url(#mask-2)"></path>
                            </g>
                        </g>
                    </g>
                </g>
            </g>
        </g>
    </g>
</svg>