<?xml version="1.0" encoding="UTF-8"?>
<svg width="36px" height="39px" viewBox="0 0 36 39" version="1.1" xmlns="http://www.w3.org/2000/svg" xmlns:xlink="http://www.w3.org/1999/xlink">
    <!-- Generator: Sketch 52.6 (67491) - http://www.bohemiancoding.com/sketch -->
    <title>wynk logo</title>
    <desc>Created with Sketch.</desc>
    <g id="Page-1" stroke="none" stroke-width="1" fill="none" fill-rule="evenodd">
        <g id="Our-Apps-(Desktop)-Main" transform="translate(-930.000000, -40.000000)">
            <g id="Group-9" transform="translate(892.000000, 40.000000)">
                <g id="wynk-logo---wht" transform="translate(38.000000, 0.000000)">
                    <g id="wynk-logo">
                        <path d="M28.5244931,10.5870298 L28.3235327,12.449103 C31.0819619,15.0087977 32.8268968,18.6875789 32.8268968,22.7407107 C32.8268968,30.3753626 26.6359007,36.6821779 19.1416935,36.6821779 C11.6473719,36.6821779 5.45649015,30.3753626 5.45649015,22.7407107 C5.45649015,15.1060589 11.6473719,8.79924355 19.1416935,8.79924355 C20.583987,8.79924355 21.9776702,9.03364996 23.2885446,9.46537759 L23.4583944,7.93392236 C22.0711162,7.51618914 20.6022873,7.29099572 19.0821031,7.29099572 C10.5013148,7.29099572 3.80911879,14.3290191 3.80911879,22.7407107 C3.80911879,31.1524023 10.8845919,38.2445374 19.1416935,38.2445374 C27.398795,38.2445374 34.3605775,31.3173032 34.3605775,22.7407107 C34.3605775,17.7906537 32.0754402,13.4081868 28.5244931,10.5870298" id="Fill-4" fill="#9F0F12"></path>
                        <path d="M27.9491541,15.9179097 L27.6235229,18.9349885 C28.1732185,20.1372252 28.4845526,21.4637789 28.4845526,22.8477097 C28.4845526,28.0123477 24.1829495,32.3945814 19.1133051,32.3945814 C13.8899381,32.3945814 9.74194324,28.0123477 9.74194324,22.8477097 C9.74194324,17.6830717 14.0435463,13.3009546 19.1133051,13.3009546 C20.4033629,13.3009546 21.6430947,13.5858575 22.775541,14.0940879 L22.9917135,12.1439665 C21.7804615,11.6688562 20.4726753,11.4049449 19.1105601,11.4049449 C12.9583377,11.4049449 7.9703585,16.4731381 7.9703585,22.7406524 C7.9703585,29.0082834 12.9894483,34.1211421 19.1416706,34.1211421 C25.2940073,34.1211421 30.3129827,29.0082834 30.3129827,22.7406524 C30.3129827,20.2474312 29.4283913,17.8562525 27.9491541,15.9179097" id="Fill-6" fill="#9F0F12"></path>
                        <path d="M1.38051848,22.7406874 C1.38051848,12.8446551 9.21625529,4.65465828 18.9304049,4.65465828 L19.0923627,4.65465828 L19.0923627,3.40204173 L18.9304049,3.40204173 C8.40680954,3.40204173 0.105100989,12.0518716 -1.14376961e-05,22.7406874 L1.38051848,22.7406874 Z" id="Fill-1" fill="#9F0F12"></path>
                        <path d="M25.8884129,0 L23.7271459,19.6809257 C23.7271459,19.6809257 21.2316694,17.5249698 17.6844967,18.5682532 C14.3613885,19.545763 14.076933,22.1337964 14.0745311,22.7406874 C14.0698416,23.8952264 14.9208062,26.9979044 18.9683781,27.6576243 C23.8255101,28.3173442 25.0969244,25.2819561 25.2939959,24.2251447 C25.5519159,23.1960889 26.7511584,11.8550169 26.7511584,11.8550169 L27.3987607,5.63648295 C27.3987607,5.63648295 30.8291545,5.49677207 32.4482748,7.14613022 C34.0672806,8.79548838 33.4294003,10.8689939 33.1686209,11.6463835 C32.9320893,12.3518185 32.3770179,13.0272822 33.0738024,12.8051209 C33.5595613,12.64022 34.8364657,11.2625867 35.0645334,9.92740313 C35.4336278,7.0328921 33.2272962,5.47158212 32.9034951,5.14166385 C32.5796939,4.81186219 29.8204641,3.13696423 29.3579237,2.66535252 C28.9452516,2.2447038 28.2083208,1.39722549 28.2083208,0.40770389 L25.8884129,0 Z" id="Fill-8" fill="#EB1D22"></path>
                    </g>
                </g>
            </g>
        </g>
    </g>
</svg>