<?xml version="1.0" encoding="UTF-8"?>
<svg width="24px" height="30px" viewBox="0 0 24 30" version="1.1" xmlns="http://www.w3.org/2000/svg" xmlns:xlink="http://www.w3.org/1999/xlink">
    <!-- Generator: Sketch 52.6 (67491) - http://www.bohemiancoding.com/sketch -->
    <title>Combined Shape</title>
    <desc>Created with Sketch.</desc>
    <g id="Page-1" stroke="none" stroke-width="1" fill="none" fill-rule="evenodd">
        <g id="Our-Apps-(Desktop)-Main" transform="translate(-1067.000000, -584.000000)" fill="#EB1D22" fill-rule="nonzero">
            <g id="Group-9" transform="translate(892.000000, 40.000000)">
                <g id="controls" transform="translate(70.000000, 522.000000)">
                    <g id="Pause" transform="translate(80.759494, 0.000000)">
                        <path d="M31.906831,22.1875 C32.4554706,22.1875 32.898946,22.781508 32.898946,23.516377 L32.898946,50.0939171 C32.898946,50.8287861 32.4554706,51.4227941 31.906831,51.4227941 L25.9541404,51.4227941 C25.4055008,51.4227941 24.9620253,50.8287861 24.9620253,50.0939171 L24.9620253,23.516377 C24.9620253,22.781508 25.4055008,22.1875 25.9541404,22.1875 L31.906831,22.1875 Z M46.4578523,22.1875 C47.0064919,22.1875 47.4499674,22.781508 47.4499674,23.516377 L47.4499674,50.0939171 C47.4499674,50.8287861 47.0064919,51.4227941 46.4578523,51.4227941 L40.5051617,51.4227941 C39.9565221,51.4227941 39.5130467,50.8287861 39.5130467,50.0939171 L39.5130467,23.516377 C39.5130467,22.781508 39.9565221,22.1875 40.5051617,22.1875 L46.4578523,22.1875 Z" id="Combined-Shape"></path>
                    </g>
                </g>
            </g>
        </g>
    </g>
</svg>