<?xml version="1.0" encoding="UTF-8"?>
<svg width="25px" height="29px" viewBox="0 0 25 29" version="1.1" xmlns="http://www.w3.org/2000/svg" xmlns:xlink="http://www.w3.org/1999/xlink">
    <!-- Generator: Sketch 52.6 (67491) - http://www.bohemiancoding.com/sketch -->
    <title>Path</title>
    <desc>Created with Sketch.</desc>
    <g id="Page-1" stroke="none" stroke-width="1" fill="none" fill-rule="evenodd">
        <g id="Our-Apps-(Desktop)-Main" transform="translate(-1068.000000, -584.000000)" fill="#EB1D22" fill-rule="nonzero">
            <g id="Group-9" transform="translate(892.000000, 40.000000)">
                <g id="controls" transform="translate(69.000000, 522.000000)">
                    <g id="Pause" transform="translate(81.759494, 0.000000)">
                        <path d="M49.0655063,38.462312 L29.0655063,50.4810837 C28.6608188,50.7240131 28.2006626,50.8461538 27.7405063,50.8461538 C27.3236313,50.8461538 26.9061313,50.746398 26.5283188,50.5444827 C25.7336313,50.120821 25.2405063,49.3167652 25.2405063,48.4423995 L25.2405063,24.4048562 C25.2405063,23.5304905 25.7336313,22.7264347 26.5283188,22.302773 C27.3230063,21.8767076 28.2947251,21.9025479 29.0655063,22.366172 L49.0655063,34.3849437 C49.7961313,34.8251312 50.2405063,35.5950838 50.2405063,36.4236278 C50.2405063,37.2521719 49.7961313,38.0222747 49.0655063,38.462312 Z" id="Path"></path>
                    </g>
                </g>
            </g>
        </g>
    </g>
</svg>