<?xml version="1.0" encoding="UTF-8"?>
<svg width="18px" height="25px" viewBox="0 0 18 25" version="1.1" xmlns="http://www.w3.org/2000/svg" xmlns:xlink="http://www.w3.org/1999/xlink">
    <!-- Generator: Sketch 52.6 (67491) - http://www.bohemiancoding.com/sketch -->
    <title>Shape Copy 2</title>
    <desc>Created with Sketch.</desc>
    <g id="Page-1" stroke="none" stroke-width="1" fill="none" fill-rule="evenodd" opacity="0.5">
        <g id="Our-Apps-(Desktop)-Main" transform="translate(-969.000000, -582.000000)" fill="#333333">
            <g id="Group-9" transform="translate(892.000000, 40.000000)">
                <g id="controls" transform="translate(69.000000, 522.000000)">
                    <g id="Prev" transform="translate(18.240506, 32.791667) scale(-1, 1) translate(-18.240506, -32.791667) translate(0.240506, 14.791667)">
                        <path d="M26.8548009,6.53917485 C26.2242205,6.3213486 25.4968187,6.44213377 25.0151943,6.84371865 L13.2228446,16.6510614 L13.2228446,6.4328426 C13.2228446,6.14791349 12.9447934,5.91666667 12.6021946,5.91666667 L10.899131,5.91666667 C10.5565322,5.91666667 10.278481,6.14791349 10.278481,6.4328426 L10.278481,29.0671574 C10.278481,29.3520865 10.5565322,29.5833333 10.899131,29.5833333 L12.6021946,29.5833333 C12.9447934,29.5833333 13.2228446,29.3520865 13.2228446,29.0671574 L13.2228446,18.8489386 L25.0151943,28.6562814 C25.3379323,28.9246928 25.7699047,29.0671574 26.2093249,29.0671574 C26.4265524,29.0671574 26.6475038,29.0330898 26.8560422,28.9597928 C27.4891052,28.7419666 27.8987342,28.22992 27.8987342,27.6610941 L27.8987342,19.6500436 L27.8987342,15.8437623 L27.8987342,7.8378735 C27.8974929,7.26904762 27.4878639,6.75700109 26.8548009,6.53917485 L26.8548009,6.53917485 Z" id="Shape-Copy-2" transform="translate(19.088608, 17.750000) rotate(-180.000000) translate(-19.088608, -17.750000) "></path>
                    </g>
                </g>
            </g>
        </g>
    </g>
</svg>