<?xml version="1.0" encoding="UTF-8"?>
<svg width="60px" height="64px" viewBox="0 0 60 64" version="1.1" xmlns="http://www.w3.org/2000/svg" xmlns:xlink="http://www.w3.org/1999/xlink">
    <!-- Generator: Sketch 52.6 (67491) - http://www.bohemiancoding.com/sketch -->
    <title>Airtel_Movies</title>
    <desc>Created with Sketch.</desc>
    <g id="Page-1" stroke="none" stroke-width="1" fill="none" fill-rule="evenodd" opacity="0.300000012">
        <g id="Our-Apps-(Desktop)-Main" transform="translate(-118.000000, -573.000000)">
            <g id="Group-6-+-Group-3-Mask" transform="translate(0.000000, -1.000000)">
                <g id="Group-3" transform="translate(60.000000, 389.000000)">
                    <g id="Group-2" transform="translate(0.000000, 84.000000)">
                        <g id="Movie-noimage">
                            <g id="Airtel--TV---Adaptive-Icon" transform="translate(58.000000, 101.000000)">
                                <g id="Airtel_Movies">
                                    <g id="Shape">
                                        <path d="M52.487395,15.95 C54.4537815,15.95 56.0672269,17.55 56.0672269,19.5 L56.0672269,50.7 C56.0672269,52.65 54.4537815,54.25 52.487395,54.25 L7.21008403,54.25 C5.24369748,54.25 3.6302521,52.65 3.6302521,50.7 L3.6302521,19.5 C3.6302521,17.55 5.24369748,15.95 7.21008403,15.95 L52.487395,15.95 Z M52.487395,12.35 L7.21008403,12.35 C3.22689076,12.35 0,15.6 0,19.5 L0,50.7 C0,54.65 3.22689076,57.85 7.21008403,57.85 L52.487395,57.85 C56.4705882,57.85 59.697479,54.65 59.697479,50.7 L59.697479,19.5 C59.6470588,15.6 56.4201681,12.35 52.487395,12.35 Z" fill="#FFFFFF" fill-rule="nonzero"></path>
                                        <g id="Group" transform="translate(18.655462, 55.500000)">
                                            <path d="M20.8739496,7.15 L1.46218487,7.15 C0.907563025,7.15 0.453781513,6.7 0.453781513,6.15 L0.453781513,1 C0.453781513,0.45 0.907563025,0 1.46218487,0 L20.8739496,0 C21.4285714,0 21.8823529,0.45 21.8823529,1 L21.8823529,6.15 C21.9327731,6.7 21.4789916,7.15 20.8739496,7.15 Z" id="Path" fill="#FFFFFF"></path>
                                            <path d="M20.8739496,7.15 L1.46218487,7.15 C0.907563025,7.15 0.453781513,6.7 0.453781513,6.15 L0.453781513,1 C0.453781513,0.45 0.907563025,0 1.46218487,0 L20.8739496,0 C21.4285714,0 21.8823529,0.45 21.8823529,1 L21.8823529,6.15 C21.9327731,6.7 21.4789916,7.15 20.8739496,7.15 Z" id="Path" stroke="#FFFFFF" stroke-width="0.8926"></path>
                                        </g>
                                        <path d="M40.6890756,0.4 C40.0840336,0.4 39.4285714,0.65 38.8739496,1.2 L28.9915966,11.15 C28.0840336,12.1 27.9327731,13.5 28.7394958,14.25 C29.092437,14.6 29.5462185,14.75 30.0504202,14.75 C30.6554622,14.75 31.3109244,14.5 31.8655462,13.95 L41.697479,4 C42.605042,3.05 42.7563025,1.65 41.9495798,0.9 C41.6470588,0.55 41.1932773,0.4 40.6890756,0.4 Z" id="Path" fill="#FFFFFF"></path>
                                        <path d="M22.0336134,4.1 C21.5294118,4.1 21.0756303,4.25 20.7226891,4.6 C19.9663866,5.4 20.0672269,6.8 20.9747899,7.7 L27.2268908,14 C27.7310924,14.5 28.3865546,14.8 29.0420168,14.8 C29.5462185,14.8 30,14.65 30.3529412,14.3 C31.1092437,13.5 31.0084034,12.1 30.1008403,11.2 L23.8487395,4.9 C23.2941176,4.4 22.6386555,4.1 22.0336134,4.1 Z" id="Path" fill="#FFFFFF"></path>
                                    </g>
                                    <g id="Play_Icon" transform="translate(23.193277, 27.000000)" fill="#FFFFFF">
                                        <path d="M1.1092437,14.85 C0.705882353,14.85 0.403361345,14.5 0.403361345,14.1 L0.403361345,1.2 C0.403361345,0.8 0.705882353,0.45 1.1092437,0.45 L12.7058824,7.1 C12.7058824,7.1 13.2605042,7.65 12.7058824,8.2 C12.1512605,8.75 1.1092437,14.85 1.1092437,14.85 Z" id="Path"></path>
                                    </g>
                                </g>
                            </g>
                        </g>
                    </g>
                </g>
            </g>
        </g>
    </g>
</svg>